<svg xmlns="http://www.w3.org/2000/svg" viewBox="0 0 1024 1024">
  <g fill="#1d5074">
    <rect x="508" y="216" width="8" height="4"/>
    <rect x="500" y="220" width="24" height="4"/>
    <rect x="500" y="364" width="24" height="4"/>
    <rect x="492" y="224" width="40" height="4"/>
    <rect x="488" y="228" width="48" height="4"/>
    <rect x="488" y="368" width="48" height="4"/>
    <rect x="484" y="232" width="60" height="4"/>
    <rect x="476" y="236" width="72" height="4"/>
    <rect x="476" y="380" width="72" height="4"/>
    <rect x="472" y="240" width="80" height="4"/>
    <rect x="472" y="384" width="80" height="8"/>
    <rect x="464" y="244" width="96" height="4"/>
    <rect x="608" y="244" width="40" height="4"/>
    <rect x="608" y="540" width="40" height="24"/>
    <rect x="460" y="248" width="104" height="4"/>
    <rect x="604" y="248" width="48" height="16"/>
    <rect x="604" y="524" width="48" height="4"/>
    <rect x="452" y="252" width="120" height="4"/>
    <rect x="448" y="256" width="128" height="4"/>
    <rect x="444" y="260" width="136" height="4"/>
    <rect x="436" y="264" width="64" height="4"/>
    <rect x="524" y="264" width="128" height="4"/>
    <rect x="432" y="268" width="64" height="4"/>
    <rect x="528" y="268" width="124" height="4"/>
    <rect x="424" y="272" width="64" height="4"/>
    <rect x="536" y="272" width="116" height="4"/>
    <rect x="420" y="276" width="64" height="4"/>
    <rect x="540" y="276" width="112" height="4"/>
    <rect x="416" y="280" width="60" height="4"/>
    <rect x="548" y="280" width="104" height="4"/>
    <rect x="408" y="284" width="64" height="4"/>
    <rect x="552" y="284" width="100" height="4"/>
    <rect x="404" y="288" width="64" height="4"/>
    <rect x="556" y="288" width="96" height="4"/>
    <rect x="396" y="292" width="64" height="4"/>
    <rect x="564" y="292" width="88" height="4"/>
    <rect x="392" y="296" width="64" height="4"/>
    <rect x="392" y="544" width="64" height="4"/>
    <rect x="568" y="296" width="84" height="4"/>
    <rect x="388" y="300" width="60" height="4"/>
    <rect x="388" y="540" width="60" height="4"/>
    <rect x="576" y="300" width="76" height="4"/>
    <rect x="380" y="304" width="64" height="4"/>
    <rect x="580" y="304" width="72" height="4"/>
    <rect x="376" y="308" width="64" height="4"/>
    <rect x="584" y="308" width="68" height="4"/>
    <rect x="368" y="312" width="64" height="4"/>
    <rect x="592" y="312" width="64" height="4"/>
    <rect x="364" y="316" width="64" height="4"/>
    <rect x="596" y="316" width="64" height="4"/>
    <rect x="360" y="320" width="60" height="4"/>
    <rect x="604" y="320" width="64" height="4"/>
    <rect x="352" y="324" width="64" height="4"/>
    <rect x="608" y="324" width="64" height="4"/>
    <rect x="348" y="328" width="64" height="4"/>
    <rect x="612" y="328" width="64" height="4"/>
    <rect x="340" y="332" width="64" height="4"/>
    <rect x="620" y="332" width="64" height="4"/>
    <rect x="336" y="336" width="64" height="4"/>
    <rect x="624" y="336" width="64" height="4"/>
    <rect x="328" y="340" width="64" height="4"/>
    <rect x="632" y="340" width="64" height="4"/>
    <rect x="324" y="344" width="64" height="4"/>
    <rect x="636" y="344" width="64" height="4"/>
    <rect x="320" y="348" width="64" height="4"/>
    <rect x="640" y="348" width="64" height="4"/>
    <rect x="312" y="352" width="64" height="4"/>
    <rect x="648" y="352" width="64" height="4"/>
    <rect x="308" y="356" width="64" height="4"/>
    <rect x="652" y="356" width="64" height="4"/>
    <rect x="300" y="360" width="64" height="4"/>
    <rect x="660" y="360" width="64" height="4"/>
    <rect x="296" y="364" width="68" height="8"/>
    <rect x="660" y="364" width="68" height="4"/>
    <rect x="660" y="368" width="72" height="12"/>
    <rect x="292" y="372" width="72" height="8"/>
    <rect x="484" y="372" width="56" height="4"/>
    <rect x="480" y="376" width="64" height="4"/>
    <rect x="292" y="380" width="88" height="8"/>
    <rect x="644" y="380" width="88" height="8"/>
    <rect x="296" y="388" width="80" height="4"/>
    <rect x="648" y="388" width="80" height="4"/>
    <rect x="300" y="392" width="20" height="4"/>
    <rect x="340" y="392" width="36" height="20"/>
    <rect x="340" y="436" width="36" height="16"/>
    <rect x="468" y="392" width="88" height="76"/>
    <rect x="648" y="392" width="76" height="4"/>
    <rect x="648" y="396" width="40" height="44"/>
    <rect x="336" y="412" width="40" height="24"/>
    <rect x="648" y="440" width="36" height="12"/>
    <rect x="340" y="452" width="40" height="8"/>
    <rect x="644" y="452" width="40" height="8"/>
    <rect x="344" y="460" width="36" height="4"/>
    <rect x="644" y="460" width="36" height="4"/>
    <rect x="344" y="464" width="40" height="12"/>
    <rect x="640" y="464" width="40" height="12"/>
    <rect x="348" y="476" width="40" height="8"/>
    <rect x="636" y="476" width="40" height="8"/>
    <rect x="352" y="484" width="40" height="8"/>
    <rect x="632" y="484" width="40" height="8"/>
    <rect x="352" y="492" width="44" height="4"/>
    <rect x="628" y="492" width="44" height="4"/>
    <rect x="356" y="496" width="44" height="4"/>
    <rect x="624" y="496" width="44" height="8"/>
    <rect x="360" y="500" width="40" height="4"/>
    <rect x="360" y="504" width="44" height="4"/>
    <rect x="620" y="504" width="44" height="4"/>
    <rect x="364" y="508" width="44" height="4"/>
    <rect x="616" y="508" width="44" height="4"/>
    <rect x="616" y="620" width="44" height="4"/>
    <rect x="364" y="512" width="48" height="4"/>
    <rect x="612" y="512" width="48" height="4"/>
    <rect x="368" y="516" width="48" height="4"/>
    <rect x="608" y="516" width="48" height="4"/>
    <rect x="372" y="520" width="48" height="4"/>
    <rect x="608" y="520" width="44" height="4"/>
    <rect x="608" y="564" width="44" height="4"/>
    <rect x="372" y="524" width="52" height="4"/>
    <rect x="376" y="528" width="52" height="4"/>
    <rect x="604" y="528" width="44" height="12"/>
    <rect x="380" y="532" width="56" height="4"/>
    <rect x="384" y="536" width="56" height="4"/>
    <rect x="396" y="548" width="72" height="4"/>
    <rect x="400" y="552" width="84" height="4"/>
    <rect x="540" y="552" width="24" height="4"/>
    <rect x="404" y="556" width="168" height="4"/>
    <rect x="412" y="560" width="168" height="4"/>
    <rect x="416" y="564" width="172" height="4"/>
    <rect x="424" y="568" width="228" height="4"/>
    <rect x="432" y="572" width="220" height="4"/>
    <rect x="436" y="576" width="216" height="4"/>
    <rect x="448" y="580" width="208" height="4"/>
    <rect x="460" y="584" width="196" height="4"/>
    <rect x="472" y="588" width="184" height="4"/>
    <rect x="496" y="592" width="32" height="4"/>
    <rect x="560" y="592" width="96" height="4"/>
    <rect x="568" y="596" width="92" height="4"/>
    <rect x="576" y="600" width="84" height="4"/>
    <rect x="584" y="604" width="76" height="4"/>
    <rect x="592" y="608" width="68" height="4"/>
    <rect x="600" y="612" width="60" height="4"/>
    <rect x="608" y="616" width="52" height="4"/>
    <rect x="624" y="624" width="36" height="4"/>
    <rect x="632" y="628" width="24" height="4"/>
    <rect x="160" y="692" width="28" height="112"/>
    <rect x="600" y="692" width="72" height="4"/>
    <rect x="600" y="696" width="80" height="4"/>
    <rect x="600" y="700" width="84" height="4"/>
    <rect x="600" y="796" width="84" height="4"/>
    <rect x="816" y="700" width="16" height="16"/>
    <rect x="816" y="732" width="16" height="56"/>
    <rect x="600" y="704" width="12" height="36"/>
    <rect x="600" y="752" width="12" height="40"/>
    <rect x="664" y="704" width="20" height="4"/>
    <rect x="672" y="708" width="16" height="24"/>
    <rect x="212" y="716" width="68" height="4"/>
    <rect x="320" y="716" width="68" height="4"/>
    <rect x="416" y="716" width="32" height="4"/>
    <rect x="512" y="716" width="36" height="4"/>
    <rect x="740" y="716" width="24" height="4"/>
    <rect x="808" y="716" width="24" height="4"/>
    <rect x="212" y="720" width="76" height="4"/>
    <rect x="320" y="720" width="136" height="4"/>
    <rect x="504" y="720" width="52" height="4"/>
    <rect x="732" y="720" width="40" height="4"/>
    <rect x="732" y="800" width="40" height="4"/>
    <rect x="804" y="720" width="52" height="12"/>
    <rect x="212" y="724" width="80" height="4"/>
    <rect x="320" y="724" width="140" height="4"/>
    <rect x="500" y="724" width="64" height="4"/>
    <rect x="724" y="724" width="56" height="4"/>
    <rect x="212" y="728" width="84" height="8"/>
    <rect x="320" y="728" width="144" height="8"/>
    <rect x="496" y="728" width="72" height="4"/>
    <rect x="720" y="728" width="64" height="4"/>
    <rect x="720" y="792" width="64" height="4"/>
    <rect x="492" y="732" width="80" height="4"/>
    <rect x="668" y="732" width="20" height="4"/>
    <rect x="716" y="732" width="20" height="4"/>
    <rect x="768" y="732" width="28" height="4"/>
    <rect x="212" y="736" width="88" height="4"/>
    <rect x="320" y="736" width="148" height="4"/>
    <rect x="488" y="736" width="84" height="4"/>
    <rect x="488" y="784" width="84" height="4"/>
    <rect x="664" y="736" width="24" height="4"/>
    <rect x="664" y="752" width="24" height="4"/>
    <rect x="712" y="736" width="20" height="4"/>
    <rect x="772" y="736" width="24" height="4"/>
    <rect x="212" y="740" width="36" height="4"/>
    <rect x="268" y="740" width="32" height="4"/>
    <rect x="320" y="740" width="36" height="4"/>
    <rect x="376" y="740" width="40" height="4"/>
    <rect x="436" y="740" width="32" height="4"/>
    <rect x="488" y="740" width="32" height="4"/>
    <rect x="544" y="740" width="32" height="4"/>
    <rect x="544" y="776" width="32" height="4"/>
    <rect x="600" y="740" width="88" height="12"/>
    <rect x="600" y="792" width="88" height="4"/>
    <rect x="712" y="740" width="16" height="4"/>
    <rect x="712" y="780" width="16" height="4"/>
    <rect x="776" y="740" width="20" height="4"/>
    <rect x="212" y="744" width="32" height="4"/>
    <rect x="272" y="744" width="28" height="8"/>
    <rect x="320" y="744" width="32" height="8"/>
    <rect x="380" y="744" width="32" height="8"/>
    <rect x="440" y="744" width="76" height="4"/>
    <rect x="440" y="776" width="76" height="4"/>
    <rect x="548" y="744" width="28" height="4"/>
    <rect x="548" y="772" width="28" height="4"/>
    <rect x="708" y="744" width="16" height="12"/>
    <rect x="780" y="744" width="16" height="32"/>
    <rect x="212" y="748" width="28" height="56"/>
    <rect x="440" y="748" width="72" height="28"/>
    <rect x="548" y="748" width="32" height="4"/>
    <rect x="276" y="752" width="24" height="52"/>
    <rect x="320" y="752" width="28" height="52"/>
    <rect x="380" y="752" width="28" height="52"/>
    <rect x="552" y="752" width="28" height="20"/>
    <rect x="672" y="756" width="52" height="4"/>
    <rect x="676" y="760" width="48" height="4"/>
    <rect x="680" y="764" width="44" height="16"/>
    <rect x="776" y="776" width="16" height="8"/>
    <rect x="440" y="780" width="28" height="24"/>
    <rect x="488" y="780" width="88" height="4"/>
    <rect x="680" y="780" width="12" height="4"/>
    <rect x="676" y="784" width="16" height="4"/>
    <rect x="716" y="784" width="16" height="4"/>
    <rect x="772" y="784" width="16" height="4"/>
    <rect x="492" y="788" width="76" height="4"/>
    <rect x="668" y="788" width="24" height="4"/>
    <rect x="716" y="788" width="24" height="4"/>
    <rect x="764" y="788" width="24" height="4"/>
    <rect x="820" y="788" width="16" height="4"/>
    <rect x="496" y="792" width="68" height="4"/>
    <rect x="820" y="792" width="40" height="4"/>
    <rect x="504" y="796" width="56" height="4"/>
    <rect x="724" y="796" width="52" height="4"/>
    <rect x="824" y="796" width="36" height="4"/>
    <rect x="508" y="800" width="44" height="4"/>
    <rect x="600" y="800" width="76" height="4"/>
    <rect x="828" y="800" width="32" height="4"/>
    <rect x="524" y="804" width="12" height="4"/>
  </g>
</svg>
